<svg id="Layer_1" data-name="Layer 1" xmlns="http://www.w3.org/2000/svg" viewBox="0 0 113.2 156"><title>fireOutline5</title><path d="M59.23,32.29q5.13,8.64,11.82,18.15c2.92,4.14,5.89,8,8.76,11.69,10.1,13,17.4,22.47,17.39,36.73a42.83,42.83,0,0,1-12.34,29.23A39.59,39.59,0,0,1,56.61,140c-.64,0-1.29,0-1.94-.05C33.77,139,16.79,121.11,16,99.34a43.41,43.41,0,0,1,7.16-25.6,22.19,22.19,0,0,0,8.35,1.75,18.22,18.22,0,0,0,5.88-1c11.5-3.94,14.7-15.89,19.54-34,.59-2.22,1.38-5.15,2.27-8.26M59.59,0c-1.7,0-3.64,1.78-5,3.23-11,11.4-15.09,53.68-22.32,56.16a2.17,2.17,0,0,1-.69.1c-3.25,0-9.95-5.46-12-5.46a.63.63,0,0,0-.45.15A58.88,58.88,0,0,0,0,99.9c1.05,30.07,24.66,54.64,53.87,56,.9,0,1.81.06,2.7.06,30.84,0,55.92-25.39,56.59-56.95v-.17c0-24.89-16-39-29.07-57.65C76.21,30,67.09,15.45,62.26,2.49,61.58.67,60.63,0,59.59,0Z" fill="#ff467e"/></svg>