<svg id="Layer_1" data-name="Layer 1" xmlns="http://www.w3.org/2000/svg" viewBox="0 0 113.04 155.78"><title>fireFill5</title><path d="M64.72,70.5l1.52,2C76.17,85.29,80,90.92,80,98.51c-.44,13.41-10.92,24.27-23.51,24.27-.37,0-.75,0-1.12,0a22.7,22.7,0,0,1-15.23-7.15,25.78,25.78,0,0,1-7.16-17,27.11,27.11,0,0,1,.5-6.26,35.14,35.14,0,0,0,9.37-1.83c10.89-3.74,17.35-11,21.83-20M59.5,0c-1.69,0-3.63,1.78-5,3.23-11,11.38-15.07,53.6-22.3,56.07a2.12,2.12,0,0,1-.69.11c-3.24,0-9.93-5.45-12-5.45a.64.64,0,0,0-.45.14A58.8,58.8,0,0,0,0,99.76c1.05,30,24.63,54.56,53.79,56q1.37.06,2.7.06c30.8,0,55.84-25.35,56.51-56.87a.49.49,0,0,0,0-.17c0-24.85-16-39-29-57.57C76.11,29.93,67,15.43,62.17,2.49,61.49.67,60.54,0,59.5,0Z" fill="#e91e63"/></svg>